<?xml version="1.0" standalone="no"?>  
<!DOCTYPE svg PUBLIC "-//W3C//DTD SVG 20010904//EN"  
 "http://www.w3.org/TR/2001/REC-SVG-20010904/DTD/svg10.dtd">  
<svg version="1.0" xmlns="http://www.w3.org/2000/svg"  
 width="512.000000pt" height="512.000000pt" viewBox="0 0 512.000000 512.000000"  
 preserveAspectRatio="xMidYMid meet">  
<metadata>  
Created by potrace 1.16, written by Peter Selinger 2001-2019  
</metadata>  
<g transform="translate(0.000000,512.000000) scale(0.100000,-0.100000)"  
fill="#00ffff" stroke="none">  
<path d="M2395 3670 c-803 -798 -1461 -1455 -1463 -1460 -2 -6 192 -10 537  
-10 298 0 541 -1 541 -2 0 -2 -187 -496 -414 -1098 -228 -602 -412 -1097 -410  
-1099 3 -3 35 25 72 61 37 36 711 690 1497 1453 787 763 1432 1391 1433 1396  
2 5 -232 9 -537 9 -298 0 -541 2 -541 3 0 2 153 447 341 988 187 541 358 1035  
379 1097 22 61 36 112 32 112 -4 0 -664 -653 -1467 -1450z"/>  
<path d="M2265 5095 c-1124 -137 -2001 -1020 -2135 -2150 -15 -124 -15 -428 0  
-555 85 -734 502 -1397 1126 -1790 l31 -20 77 173 77 172 -27 20 c-146 107  
-199 150 -277 224 -317 301 -529 691 -613 1128 -24 124 -27 162 -28 363 0 241  
9 323 60 525 147 579 572 1092 1120 1351 327 155 678 222 1019 195 164 -13  
224 -23 363 -57 l102 -26 117 108 c64 60 132 123 152 141 23 20 32 35 26 41  
-5 5 -42 21 -81 35 -155 56 -384 107 -566 127 -131 14 -408 11 -543 -5z"/>  
<path d="M3850 4528 c-40 -90 -74 -168 -76 -173 -3 -6 34 -42 81 -80 106 -85  
281 -264 356 -365 459 -614 546 -1410 229 -2101 -105 -230 -236 -417 -424  
-605 -331 -331 -739 -531 -1199 -590 -232 -29 -517 -11 -707 46 -19 5 -42 10  
-52 10 -17 0 -316 -278 -317 -295 -2 -25 328 -113 509 -136 138 -17 489 -17  
610 0 839 116 1519 598 1890 1339 191 381 276 804 249 1235 -11 182 -30 301  
-74 471 -110 431 -341 827 -666 1141 -104 100 -308 265 -328 265 -5 0 -41 -73  
-81 -162z"/>  
</g>  
</svg>