<?xml version="1.0" standalone="no"?>
<!DOCTYPE svg PUBLIC "-//W3C//DTD SVG 20010904//EN"
 "http://www.w3.org/TR/2001/REC-SVG-20010904/DTD/svg10.dtd">
<svg version="1.0" xmlns="http://www.w3.org/2000/svg"
 width="512.000000pt" height="512.000000pt" viewBox="0 0 512.000000 512.000000"
 preserveAspectRatio="xMidYMid meet">
<metadata>
Created by potrace 1.16, written by Peter Selinger 2001-2019
</metadata>

<defs>
  <linearGradient id="grad1" x1="0%" y1="0%" x2="100%" y2="100%">
    <stop offset="0%" style="stop-color:#9B1C8C;stop-opacity:1" /> <!-- Merah Keunguan -->
    <stop offset="100%" style="stop-color:#00BFFF;stop-opacity:1" /> <!-- Biru -->
  </linearGradient>
</defs>

<g transform="translate(0.000000,512.000000) scale(0.100000,-0.100000)"
fill="url(#grad1)" stroke="none">
<path d="M1570 4932 c-107 -53 -107 -211 0 -264 26 -13 59 -18 128 -18 l92 0
0 -752 c0 -818 0 -820 -56 -931 -15 -28 -342 -493 -727 -1032 -385 -539 -709
-1000 -720 -1025 -89 -200 -50 -433 96 -579 68 -68 127 -106 207 -133 l65 -23
1905 0 c1835 0 1907 1 1960 19 172 58 301 193 345 361 29 112 17 246 -32 355
-11 25 -335 486 -720 1025 -385 539 -712 1003 -726 1031 -58 114 -57 105 -57
928 l0 756 93 0 c68 0 101 5 127 18 107 53 107 211 0 264 -33 17 -101 18 -990
18 -889 0 -957 -1 -990 -18z m1460 -1036 c0 -828 2 -857 60 -1003 36 -91 77
-155 281 -440 88 -122 159 -224 159 -227 0 -3 -439 -6 -975 -6 l-974 0 194
273 c204 285 252 368 288 495 21 76 22 91 25 870 l3 792 469 0 470 0 0 -754z
m-1172 -2444 c38 -27 66 -95 57 -139 -8 -46 -59 -100 -106 -114 -32 -10 -46
-9 -84 5 -114 44 -127 191 -23 257 42 26 112 21 156 -9z m-430 -262 c88 -54
96 -176 16 -239 -77 -61 -196 -18 -221 79 -32 120 101 223 205 160z m472 -209
c48 -25 85 -97 76 -146 -9 -46 -57 -101 -102 -115 -123 -41 -233 104 -161 211
43 64 121 86 187 50z"/>
</g>
</svg>